<svg width="24" height="23" viewBox="0 0 24 23" fill="none" xmlns="http://www.w3.org/2000/svg">
<path d="M0 4000 l0 -4000 4000 0 4000 0 0 4000 0 4000 -4000 0 -4000 0 0
-4000z m4440 2343 c0 -5 -182 -375 -403 -823 l-403 -815 153 -5 153 -5 -987
-1268 c-543 -698 -988 -1265 -990 -1260 -1 4 130 422 291 928 l293 920 -273 3
c-151 1 -274 5 -274 8 0 4 162 353 360 777 198 424 358 772 356 774 -2 2 -204
18 -449 35 -245 18 -444 35 -441 37 4 5 2585 697 2607 700 4 1 7 -2 7 -6z
m510 -1668 c564 -77 923 -286 1116 -650 99 -186 139 -359 131 -565 -11 -271
-96 -485 -278 -704 -323 -387 -967 -686 -1674 -775 -468 -59 -1099 -53 -1645
14 -172 22 -493 75 -502 84 -5 4 63 94 149 201 l157 195 355 0 c912 1 1554
119 1960 361 231 137 386 317 436 504 42 157 -8 327 -129 445 -106 103 -274
175 -502 216 -150 27 -577 38 -771 20 -69 -7 -127 -10 -129 -8 -3 2 437 598
492 665 1 2 51 7 111 12 159 13 587 4 723 -15z"/>
</svg>
